# xmcd
#
# Track frame offsets:
#  150
#  17632
#  37237
#  59445
#  77000
#  97642
#  117280
#  134797
#  161080
#  176715
#  197590
#  218592
#
# Disc length: 3120 seconds
#
# Revision: 0
# Processed by: cddbd v1.4b42PL1 Copyright (c) Steve Scherf et al.
# Submitted via: AltoMP3_Maker 3.0
#
DISCID=a30c2e0c
DTITLE=Average blues band - against the tide
DYEAR=1900
DGENRE=
TTITLE0=cool rain
TTITLE1=all the way
TTITLE2=nothing left to show
TTITLE3=too bad
TTITLE4=i cant believe
TTITLE5=i do these things
TTITLE6=eager beaver
TTITLE7=not the loving thing to do
TTITLE8=drink talkin'
TTITLE9=holdback
TTITLE10=no exit
TTITLE11=walking into sunset
EXTD=
EXTT0=
EXTT1=
EXTT2=
EXTT3=
EXTT4=
EXTT5=
EXTT6=
EXTT7=
EXTT8=
EXTT9=
EXTT10=
EXTT11=
PLAYORDER=
